Coordinates
version=1
nRows=26
nColumns=33
inDegrees=yes

Units are S.I. units (second, meters, Newtons, ...)
Angles are in degrees.

endheader
time	ground_thorax_rot_x	ground_thorax_rot_y	ground_thorax_rot_z	ground_thorax_tx	ground_thorax_ty	ground_thorax_tz	clav_prot_r	clav_elev_r	scapula_abduction_r	scapula_elevation_r	scapula_upward_rot_r	scapula_winging_r	shoulder_elv_r	plane_of_elev_r	axial_rot_r	elbow_flexion_r	pro_sup_r	wrist_flex_r	wrist_dev_r	clav_prot_l	clav_elev_l	scapula_abduction_l	scapula_elevation_l	scapula_upward_rot_l	scapula_winging_l	shoulder_elv_l	plane_of_elev_l	axial_rot_l	elbow_flexion_l	pro_sup_l	wrist_flex_l	wrist_dev_l	
1.8500	9.324952	30.838796	26.874614	-0.046740	1.041432	-0.041138	-39.523056	25.680968	-45.000000	14.959849	45.000000	-24.561902	36.561131	79.611101	12.214545	73.485416	39.016479	26.141130	-22.111586	26.321117	-32.985825	-45.000000	11.448273	-26.193873	6.265610	133.944929	31.703042	61.772308	67.892596	56.387067	-15.697660	-24.999999	
1.8600	9.394012	30.833630	26.908934	-0.046605	1.041596	-0.041035	-39.499984	25.712788	-45.000000	14.986457	45.000000	-24.540846	36.729381	80.217661	12.037190	72.488743	38.826003	26.099753	-22.027885	26.306933	-32.950127	-45.000000	11.503355	-25.967128	6.269607	134.027487	31.881581	62.180040	67.144693	56.410741	-15.581694	-24.999998	
1.8700	9.454738	30.822747	26.949630	-0.046494	1.041769	-0.040949	-39.470103	25.753921	-45.000000	15.020879	44.999999	-24.513600	36.875807	80.804778	11.888461	71.489601	38.626513	26.031098	-21.924989	26.290992	-32.908382	-45.000000	11.554155	-25.737478	6.278529	134.098596	32.062039	62.564346	66.370684	56.428524	-15.452950	-24.999997	
1.8800	9.519193	30.809439	26.994451	-0.046403	1.041935	-0.040868	-39.439387	25.796070	-45.000000	15.056153	44.999999	-24.485407	37.021277	81.401126	11.772429	70.457486	38.404137	25.940270	-21.804929	26.272364	-32.854051	-45.000000	11.592693	-25.510648	6.299387	134.155396	32.252821	62.952243	65.577828	56.435090	-15.319634	-24.999995	
1.8900	9.574971	30.788510	27.041088	-0.046341	1.042104	-0.040806	-39.405129	25.842907	-45.000000	15.095381	44.999998	-24.453825	37.152782	81.984596	11.682287	69.412588	38.169678	25.829643	-21.675889	26.250985	-32.788772	-45.000000	11.623522	-25.278533	6.329497	134.208706	32.449135	63.325229	64.755816	56.437700	-15.175234	-24.999991	
1.9000	9.641142	30.767313	27.084231	-0.046293	1.042254	-0.040747	-39.376590	25.881666	-45.000000	15.127848	44.999997	-24.427145	37.305215	82.596592	11.619228	68.312592	37.898239	25.708426	-21.541808	26.225901	-32.704777	-45.000000	11.635505	-25.052331	6.377617	134.259374	32.660317	63.723064	63.919397	56.428583	-15.026922	-24.999985	
1.9100	9.692659	30.738081	27.125371	-0.046267	1.042412	-0.040717	-39.345986	25.923097	-45.000000	15.162594	44.999994	-24.398493	37.446691	83.188766	11.574303	67.205505	37.606471	25.570548	-21.406406	26.198245	-32.610539	-45.000000	11.640538	-24.820547	6.434143	134.322291	32.873422	64.101390	63.053076	56.417887	-14.856306	-24.999973	
1.9200	9.749920	30.708809	27.164469	-0.046244	1.042557	-0.040691	-39.320613	25.957317	-45.000000	15.191306	44.999990	-24.374589	37.606956	83.805052	11.557133	66.047849	37.269885	25.416077	-21.263549	26.167645	-32.500376	-45.000000	11.628156	-24.597476	6.506418	134.390806	33.095897	64.498610	62.179213	56.393167	-14.667342	-24.999951	
1.9300	9.790138	30.672153	27.197916	-0.046223	1.042717	-0.040697	-39.297035	25.989036	-45.000000	15.217957	44.999982	-24.352441	37.760786	84.402778	11.558569	64.884117	36.899129	25.240264	-21.117363	26.135227	-32.383205	-45.000000	11.611379	-24.369709	6.584272	134.482689	33.315608	64.874565	61.282514	56.362664	-14.440847	-24.999912	
1.9400	9.827986	30.634662	27.225836	-0.046188	1.042873	-0.040714	-39.281311	26.009979	-45.000000	15.235591	44.999967	-24.337581	37.931149	85.015819	11.586859	63.682890	36.475508	25.042848	-20.962322	26.100782	-32.255887	-45.000000	11.584247	-24.145591	6.671842	134.591784	33.538780	65.257984	60.376554	56.317087	-14.180774	-24.999843	
1.9500	9.855076	30.596926	27.231539	-0.046113	1.043041	-0.040766	-39.288569	25.999546	-45.000000	15.226894	44.999941	-24.343906	38.129176	85.641074	11.651857	62.452284	35.946887	24.818449	-20.810705	26.063756	-32.116877	-45.000000	11.548538	-23.917083	6.769281	134.745950	33.767648	65.652433	59.455275	56.245721	-13.863179	-24.999720	
1.9600	9.882626	30.563634	27.225533	-0.046004	1.043206	-0.040829	-39.314038	25.964393	-45.000000	15.197421	44.999895	-24.367032	38.364180	86.297673	11.756764	61.172214	35.316884	24.569005	-20.652692	26.024989	-31.968464	-45.000000	11.502442	-23.694078	6.876041	134.927835	34.005598	66.072706	58.527612	56.148205	-13.500601	-24.999498	
1.9700	9.905337	30.534416	27.214221	-0.045868	1.043380	-0.040906	-39.354951	25.908243	-45.000000	15.150315	44.999812	-24.404422	38.632953	86.976287	11.905753	59.848919	34.582938	24.290067	-20.479858	25.985678	-31.816063	-45.000000	11.450182	-23.478150	6.987221	135.135508	34.247953	66.504960	57.592465	56.028690	-13.087709	-24.999100	
1.9800	9.919007	30.504550	27.216671	-0.045733	1.043563	-0.040979	-39.391513	25.858072	-45.000000	15.108272	44.999663	-24.438038	38.908648	87.656700	12.085316	58.498904	33.813862	23.984589	-20.274387	25.947362	-31.669024	-45.000000	11.400425	-23.267959	7.094070	135.342812	34.484996	66.916743	56.644881	55.910228	-12.643521	-24.998389	
1.9900	9.932233	30.482153	27.209344	-0.045564	1.043763	-0.041066	-39.451947	25.774769	-45.000000	15.038512	44.999397	-24.493345	39.224233	88.373228	12.332347	57.092949	32.920820	23.633567	-20.035356	25.908549	-31.520001	-45.000000	11.348346	-23.059488	7.202496	135.570935	34.726273	67.338857	55.693847	55.775132	-12.134713	-24.997114	
2.0000	9.932782	30.457118	27.208837	-0.045398	1.043989	-0.041163	-39.511607	25.691917	-45.000000	14.969336	44.998920	-24.547858	39.536006	89.085883	12.627134	55.667149	31.989734	23.244958	-19.751895	25.870633	-31.380054	-45.000000	11.306881	-22.843919	7.301368	135.799048	34.960105	67.724180	54.723550	55.654398	-11.581153	-24.994830	
2.0100	9.930956	30.437252	27.212553	-0.045222	1.044236	-0.041270	-39.583821	25.590492	-45.000000	14.884889	44.998066	-24.613301	39.865845	89.828382	13.012047	54.185373	30.965960	22.801338	-19.406352	25.833267	-31.244508	-45.000000	11.269180	-22.628646	7.395875	136.027262	35.194524	68.100135	53.750309	55.539297	-10.963804	-24.990739	
2.0200	9.910247	30.408447	27.226166	-0.045061	1.044514	-0.041397	-39.648208	25.497905	-45.000000	14.808342	44.996534	-24.671049	40.166783	90.557470	13.477275	52.688882	29.913274	22.317646	-19.001871	25.796141	-31.117020	-45.000000	11.244308	-22.397998	7.480810	136.251965	35.419405	68.419164	52.751449	55.460380	-10.302176	-24.983413	
2.0300	9.903100	30.395192	27.202330	-0.044832	1.044811	-0.041559	-39.763656	25.330806	-45.000000	14.670196	44.993797	-24.773532	40.506227	91.373070	14.148039	51.094383	28.586453	21.742810	-18.525524	25.756617	-30.982143	-45.000000	11.217138	-22.156273	7.570707	136.510834	35.658558	68.776741	51.764682	55.376451	-9.518101	-24.970282	
2.0400	9.891151	30.381915	27.163247	-0.044580	1.045131	-0.041756	-39.893019	25.139125	-45.000000	14.512584	44.988872	-24.886726	40.817819	92.220625	15.047439	49.439040	27.009062	21.113693	-17.995639	25.716018	-30.849514	-45.000000	11.198047	-21.898081	7.656270	136.790414	35.895958	69.112192	50.764609	55.323445	-8.655667	-24.946783	
2.0500	9.899806	30.388183	27.101968	-0.044266	1.045455	-0.041980	-40.059934	24.885813	-45.000000	14.305243	44.980113	-25.030299	41.126518	93.174436	16.347429	47.639887	24.937589	20.398667	-17.384207	25.675338	-30.718392	-45.000000	11.179425	-21.642047	7.740400	137.090232	36.139406	69.476999	49.790433	55.285229	-7.675622	-24.904628	
2.0600	9.918859	30.403940	27.029886	-0.043912	1.045770	-0.042252	-40.237042	24.603482	-45.000000	14.076398	44.964249	-25.177626	41.352005	94.210550	18.238196	45.673726	22.162233	19.669775	-16.757360	25.635434	-30.594581	-45.000000	11.167465	-21.385240	7.817499	137.411637	36.375078	69.819862	48.817062	55.292511	-6.637172	-24.829285	
2.0700	9.969150	30.447232	26.937369	-0.043482	1.046051	-0.042581	-40.437297	24.266788	-45.000000	13.805915	44.936317	-25.337108	41.544904	95.376445	20.902368	43.448949	18.453832	18.919544	-16.112280	25.595689	-30.472586	-45.000000	11.154858	-21.134568	7.892979	137.746241	36.617780	70.171019	47.875119	55.337075	-5.538118	-24.693857	
2.0800	10.040699	30.516846	26.833830	-0.042986	1.046299	-0.042996	-40.625279	23.905534	-45.000000	13.522175	44.884928	-25.469504	41.728318	96.608751	24.524327	40.919545	13.626945	18.201522	-15.477218	25.555961	-30.362278	-45.000000	11.158047	-20.868997	7.955057	138.060703	36.863536	70.446556	46.947767	55.477588	-4.461861	-24.452571	
2.0900	10.171711	30.637140	26.712260	-0.042397	1.046459	-0.043512	-40.784806	23.521817	-45.000000	13.230197	44.796655	-25.551781	41.945887	97.954232	29.541734	37.917572	7.167288	17.531709	-14.884625	25.517387	-30.274273	-45.000000	11.187895	-20.584367	7.993192	138.311623	37.117749	70.659174	46.058823	55.733889	-3.434245	-24.094848	
2.1000	10.354882	30.855537	26.538252	-0.041594	1.046610	-0.044230	-40.943962	23.000028	-45.000000	12.846869	44.627986	-25.580508	42.783497	99.339685	36.353317	34.111568	-2.078680	16.973912	-14.348732	25.480641	-30.227213	-45.000000	11.270382	-20.255303	7.986042	138.511066	37.416849	70.795969	45.180304	56.108008	-2.495596	-23.623490	
